#!OML:ASF F:\VICON\USERDATA\INSTALL\Justin_Nancy\Justin_Nancy.ASF
:FULLY-SPECIFIED
:DEGREES
130
root 0.266141 17.781 20.133 5.85377 -6.01802 2.16549
lowerback 9.36451 -2.10206 -5.4801
upperback -0.706114 -3.27773 2.4862
thorax -5.54843 -1.41563 6.16478
lowerneck -22.6058 -2.59439 -8.33046
upperneck 14.0778 -2.42448 7.87033
head 8.26499 -0.778137 3.70544
rclavicle -6.34123e-014 -7.15625e-015
rhumerus -62.9847 9.31515 -92.7962
rradius 103.176
rwrist -12.7577
rhand -12.4921 26.1638
rfingers 7.12502
rthumb 13.5828 -3.3731
lclavicle -6.34123e-014 -7.15625e-015
lhumerus -40.3617 -6.70818 87.6568
lradius 113.201
lwrist 29.1569
lhand -20.8044 11.2818
lfingers 7.12502
lthumb 5.56317 41.1888
rfemur -42.844 2.42135 20.1889
rtibia 69.1974
rfoot -2.55417 5.05855
rtoes -10.0486
lfemur 7.55127 -3.16272 -26.6969
ltibia 27.5701
lfoot 15.2379 -2.46412
ltoes -24.1874
131
root 0.256582 17.8581 20.6101 5.87535 -6.07339 2.03889
lowerback 9.03126 -2.31179 -5.03084
upperback -0.873357 -3.49478 2.4765
thorax -5.53148 -1.53368 5.91143
lowerneck -22.2865 -2.55496 -8.31673
upperneck 14.0336 -2.39253 7.84035
head 8.19299 -0.771413 3.69497
rclavicle 2.13694e-014 1.66979e-014
rhumerus -63.6424 9.01168 -92.5865
rradius 103.344
rwrist -12.6242
rhand -12.7226 26.0992
rfingers 7.12502
rthumb 13.3606 -3.45245
lclavicle 2.13694e-014 1.66979e-014
lhumerus -40.8542 -7.33008 87.3264
lradius 113.163
lwrist 28.9531
lhand -21.2723 11.3968
lfingers 7.12502
lthumb 5.11142 41.3151
rfemur -42.2301 2.45414 20.2936
rtibia 64.6231
rfoot -2.44382 4.89652
rtoes -10.2623
lfemur 9.32841 -3.92847 -26.8415
ltibia 25.9125
lfoot 18.762 -2.71436
ltoes -18.8699
132
root 0.237052 17.93 21.0625 6.10687 -6.31692 1.64721
lowerback 9.26682 -2.48638 -4.35058
upperback -1.39901 -3.66901 2.43558
thorax -6.24192 -1.60353 5.54325
lowerneck -22.1457 -2.46415 -8.12265
upperneck 14.3825 -2.36839 7.89174
head 8.28344 -0.747165 3.68953
rclavicle -1.48095e-014 -2.14687e-014
rhumerus -64.7256 8.74678 -92.753
rradius 103.741
rwrist -12.4781
rhand -13.0173 26.2116
rfingers 7.12502
rthumb 13.0766 -3.35841
lclavicle -1.48095e-014 -2.14687e-014
lhumerus -41.7008 -7.94506 86.749
lradius 113.025
lwrist 28.8635
lhand -20.9521 10.9513
lfingers 7.12502
lthumb 5.42061 40.862
rfemur -41.7704 2.99254 20.7183
rtibia 59.9116
rfoot -1.84843 4.3583
rtoes -10.381
lfemur 10.7015 -4.55768 -26.6797
ltibia 24.4577
lfoot 21.8094 -3.04668
ltoes -14.6045
133
root 0.218287 17.9899 21.5068 6.31191 -7.02198 1.74013
lowerback 7.73498 -2.40382 -4.62883
upperback -0.657928 -3.51955 2.49248
thorax -4.59023 -1.59902 5.61108
lowerneck -22.6814 -2.53039 -8.05493
upperneck 13.729 -2.38002 7.75646
head 8.151 -0.751558 3.62132
rclavicle -3.52843e-014 2.90226e-014
rhumerus -63.7396 8.51052 -92.1631
rradius 104.15
rwrist -12.3981
rhand -13.0893 26.0105
rfingers 7.12502
rthumb 13.0071 -3.56403
lclavicle -3.52843e-014 2.90226e-014
lhumerus -40.437 -8.3425 86.3704
lradius 112.584
lwrist 28.5864
lhand -19.6861 10.2112
lfingers 7.12502
lthumb 6.64285 40.087
rfemur -41.378 3.86668 20.4741
rtibia 55.1318
rfoot -0.973586 4.19829
rtoes -11.0418
lfemur 11.7798 -4.85536 -27.1859
ltibia 23.5992
lfoot 23.9049 -3.26601
ltoes -11.8382
134
root 0.200174 18.0486 21.9488 6.58304 -7.4964 1.86884
lowerback 7.47591 -2.35986 -4.77302
upperback -0.878384 -3.46563 2.51045
thorax -4.67327 -1.56064 5.69966
lowerneck -22.5436 -2.51358 -8.00321
upperneck 13.7147 -2.34485 7.55889
head 8.11639 -0.755231 3.54856
rclavicle 1.91827e-014 -3.49861e-014
rhumerus -63.9528 8.02963 -91.7522
rradius 104.459
rwrist -12.0833
rhand -13.0214 26.0171
rfingers 7.12502
rthumb 13.0725 -3.55318
lclavicle 1.91827e-014 -3.49861e-014
lhumerus -40.9396 -8.76459 86.3209
lradius 112.671
lwrist 28.1057
lhand -19.1104 10.7125
lfingers 7.12502
lthumb 7.19858 40.5701
rfemur -40.9772 4.665 20.1061
rtibia 50.2334
rfoot 0.080467 4.13607
rtoes -11.244
lfemur 12.5007 -5.10513 -27.6406
ltibia 23.3907
lfoot 25.4167 -3.87314
ltoes -9.24377
135
root 0.182638 18.0964 22.3906 6.75995 -7.6388 1.86703
lowerback 7.3289 -2.44631 -4.72202
upperback -1.033 -3.56801 2.6013
thorax -4.73651 -1.60614 5.77414
lowerneck -22.6906 -2.50611 -8.10433
upperneck 13.87 -2.27999 7.46555
head 8.18739 -0.737664 3.54476
rclavicle 2.04748e-014 -2.70347e-014
rhumerus -64.1495 7.76078 -91.3842
rradius 104.949
rwrist -11.8191
rhand -13.1311 26.0792
rfingers 7.12502
rthumb 12.9668 -3.49789
lclavicle 2.04748e-014 -2.70347e-014
lhumerus -41.2351 -9.10771 86.2251
lradius 112.771
lwrist 27.6291
lhand -19.4421 13.2703
lfingers 7.12502
lthumb 6.87841 43.1386
rfemur -40.2272 5.18654 19.8911
rtibia 45.3051
rfoot 1.29721 4.13792
rtoes -11.2501
lfemur 13.1833 -5.36794 -27.8862
ltibia 23.5205
lfoot 26.1586 -4.71788
ltoes -8.54987
